{"title":"Beethoven's Christmas Adventure 2011 DvDRiP XviD VISUALiSE","uid":6800305,"size":1195465539,"categoryP":"video","categoryS":"movies","magnet":"?xt=urn:btih:3f8c42721d531eb750032a44e61415762e0f986a&amp;dn=Beethoven%5C%27s+Christmas+Adventure+2011+DvDRiP+XviD+VISUALiSE&amp;tr=udp%3A%2F%2Ftracker.openbittorrent.com%3A80&amp;tr=udp%3A%2F%2Fopen.demonii.com%3A1337&amp;tr=udp%3A%2F%2Ftracker.coppersurfer.tk%3A6969&amp;tr=udp%3A%2F%2Fexodus.desync.com%3A6969","seeders":0,"leechers":0,"uploader":"crazy-torrent","files":2,"time":1320626362,"description":" &lt;a href=&quot; http://www.scenespeeds.com/&quot; rel=&quot;nofollow&quot; target=&quot;_NEW&quot;&gt; http://www.scenespeeds.com/&lt;/a&gt;\n\n  |  | |  | |  | \n  |/\\| |/\\| |/\\|,\n  ~  ~ ~  ~ ~  ~~\n                  \n   _, __,  _, ___,\n  / ` |_) /_\\ ` / \n  \\ , | \\ | |  /  \n   ~  ~ ~ ~ ~ ~~~ \n                  \n , _    ___  _, __,\n \\ |     |  / \\ |_)\n  \\| ~~  |  \\ / | \\\n   )     ~   ~  ~ ~\n  ~'               \n  __, __, _, _ ___ \n  |_) |_  |\\ |  |  \n  | \\ |   | \\|  | ,\n  ~ ~ ~~~ ~  ~  ~ ~\n                   \n     _,  _, _, _\n    / ` / \\ |\\/|\n    \\ , \\ / |  |\n     ~   ~  ~  ~\n\n\nDescription\n\nTitle: Beethoven's Christmas Adventure 2011 DvDRiP XviD - VISUALiSE\nFormat: Xvid\nLanguage: English\nSubtitles: No\nImdb: http://www.imdb.com/title/tt1855134/\nSources:\nVideo: Retail DVDR - Many Thanks German Pal\nAudio: Retail DVDR - Many Thanks German Pal\nInfo:\nVideo\nID : 0\nFormat : MPEG-4 Visual\nCodec ID : XVID\nCodec ID/Hint : XviD\nDuration : 1h 25mn\nBit rate : 90.0 Kbps\nWidth : 720 pixels\nHeight : 402 pixels\nDisplay aspect ratio : 16:9\nFrame rate : 29.970 fps\nColor space : YUV\nChroma subsampling : 4:2:0\nCompression mode : Lossy\nBits/(Pixel*Frame) : 0.010\nStream size : 55.3 MiB (5%)\nAudio\nID : 1\nFormat : MPEG Audio\nCodec ID : 55\nCodec ID/Hint : MP3\nDuration : 1h 25mn\nBit rate : 128 Kbps\nChannel(s) : 2 channels\nSampling rate : 48.0 KHz\nCompression mode : Lossy\nStream size : 78.6 MiB (7%)\nAlignment : Aligned on interleaves\n\n\nPlot\nA Christmas elf accidentally takes off in Santa's sleigh, crash lands in a small town, and loses the magic toy bag. Beethoven must rescue the elf, recover the bag from greedy crooks, and return the sleigh to Santa in time to save Christmas\n\n\nRelease Notes\nBeethoven's Christmas Adventure 2011 DvDRiP XviD - VISUALiSE Straight forward rip from the dvdr ran a few filters etc etc ","torrent":{"xt":"urn:btih:3f8c42721d531eb750032a44e61415762e0f986a","amp;dn":"Beethoven%5C%27s+Christmas+Adventure+2011+DvDRiP+XviD+VISUALiSE","amp;tr":["udp%3A%2F%2Ftracker.openbittorrent.com%3A80","udp%3A%2F%2Fopen.demonii.com%3A1337","udp%3A%2F%2Ftracker.coppersurfer.tk%3A6969","udp%3A%2F%2Fexodus.desync.com%3A6969"],"infoHash":"3f8c42721d531eb750032a44e61415762e0f986a","infoHashBuffer":{"type":"Buffer","data":[63,140,66,114,29,83,30,183,80,3,42,68,230,20,21,118,46,15,152,106]},"announce":[],"urlList":[]}}